Set in 1920s prohibition era America, Lawless is the true story of the Bondurant brothers. Brazen and fearless, these young rural bootleggers became legendary criminals. The youngest brother, Jack (Shia LaBeouf), is ambitious and impulsive, the middle brother, Howard, is loyal but reckless and eldest brother, Forrest (Tom Hardy), leads the family with a silent determination. As the BondurantsΓÇÖ illicit business and legend grows, so too looms the danger of bigger fish, and itΓÇÖs not long before the brothers must face the consequences.

Starring: Guy Pearce, Tom Hardy, Shia LaBeouf, Gary Oldman, Jessica Chastain, Mia Wasikowska

Directors: John Hillcoat, John Hillcoat

 
http://www.imdb.com/title/tt1212450/



 
http://stpicz.com/4786_vlcsnap_2013_03_26_21h01m21s16_nlnv.png 
http://stpicz.com/5957_vlcsnap_2013_03_26_21h12m49s20_sd7i.png 
http://stpicz.com/9056_vlcsnap_2013_03_26_21h10m43s49_cthk.png 
http://stpicz.com/9612_vlcsnap_2013_03_26_21h04m19s47_gkc1.png 
http://stpicz.com/7113_vlcsnap_2013_03_26_21h02m55s230_9yz1.png




General
Unique ID: 246118578373123751887719536179383038330 (0xB928B6C86F20DAC5A92D6813BD06F17A)
Complete name: E:Lawless (2012) 720p MKV x264 DTS BRrip [Pioneer].mkv
Format: Matroska
Format version: Version 2
File size: 3.16 GiB
Duration: 1h 55mn
Overall bit rate: 3 912 Kbps
Encoded date: UTC 2013-03-09 21:25:07
Writing application: mkvmerge v5.5.0 ('Healer') built on Apr  6 2012 21:43:24
Writing library: libebml v1.2.3 + libmatroska v1.3.0

Video
ID: 1
Format: AVC
Format/Info: Advanced Video Codec
Format profile: High@L3.1
Format settings, CABAC: Yes
Format settings, ReFrames: 5 frames
Codec ID: V_MPEG4/ISO/AVC
Duration: 1h 55mn
Bit rate: 2 400 Kbps
Width: 1 280 pixels
Height: 536 pixels
Display aspect ratio: 2.40:1
Frame rate mode: Constant
Frame rate: 23.976 fps
Color space: YUV
Chroma subsampling: 4:2:0
Bit depth: 8 bits
Scan type: Progressive
Bits/(Pixel*Frame): 0.146
Stream size: 1.88 GiB (59%)
Writing library: x264 core 120
Language: English
Default: Yes
Forced: No
Color primaries: BT.709
Transfer characteristics: BT.709
Matrix coefficients: BT.709

Audio
ID: 2
Format: DTS
Format/Info: Digital Theater Systems
Mode: 16
Format settings, Endianness: Big
Codec ID: A_DTS
Duration: 1h 55mn
Bit rate mode: Constant
Bit rate: 1 509 Kbps
Channel(s): 6 channels
Channel positions: Front: L C R, Side: L R, LFE
Sampling rate: 48.0 KHz
Bit depth: 24 bits
Compression mode: Lossy
Stream size: 1.22 GiB (39%)
Language: English
Default: Yes
Forced: No

Text #1
ID: 3
Format: UTF-8
Codec ID: S_TEXT/UTF8
Codec ID/Info: UTF-8 Plain Text
Language: English
Default: No
Forced: No

Text #2
ID: 4
Format: UTF-8
Codec ID: S_TEXT/UTF8
Codec ID/Info: UTF-8 Plain Text
Language: Portuguese
Default: Yes
Forced: No

Text #3
ID: 5
Format: UTF-8
Codec ID: S_TEXT/UTF8
Codec ID/Info: UTF-8 Plain Text
Language: Arabic
Default: No
Forced: No

Text #4
ID: 6
Format: UTF-8
Codec ID: S_TEXT/UTF8
Codec ID/Info: UTF-8 Plain Text
Language: Danish
Default: No
Forced: No

Text #5
ID: 7
Format: UTF-8
Codec ID: S_TEXT/UTF8
Codec ID/Info: UTF-8 Plain Text
Language: Persian
Default: No
Forced: No

Text #6
ID: 8
Format: UTF-8
Codec ID: S_TEXT/UTF8
Codec ID/Info: UTF-8 Plain Text
Language: French
Default: No
Forced: No

Text #7
ID: 9
Format: UTF-8
Codec ID: S_TEXT/UTF8
Codec ID/Info: UTF-8 Plain Text
Language: Swedish
Default: No
Forced: No

